<svg xmlns="http://www.w3.org/2000/svg" viewBox="0 0 180 180" width="180" height="180">
  <!-- 배경 원형 -->
  <rect width="180" height="180" rx="40" fill="#1e293b"/>
  
  <!-- 방패 배경 -->
  <path d="M90 20 L45 35 L45 90 C45 125 67.5 147.5 90 170 C112.5 147.5 135 125 135 90 L135 35 Z" 
        fill="#334155" stroke="#475569" stroke-width="3"/>
  
  <!-- 방패 내부 그라데이션 -->
  <defs>
    <linearGradient id="shieldGradApple" x1="0%" y1="0%" x2="100%" y2="100%">
      <stop offset="0%" style="stop-color:#475569;stop-opacity:1" />
      <stop offset="50%" style="stop-color:#334155;stop-opacity:1" />
      <stop offset="100%" style="stop-color:#1e293b;stop-opacity:1" />
    </linearGradient>
    <linearGradient id="swordGradApple" x1="0%" y1="0%" x2="100%" y2="100%">
      <stop offset="0%" style="stop-color:#fbbf24;stop-opacity:1" />
      <stop offset="50%" style="stop-color:#f59e0b;stop-opacity:1" />
      <stop offset="100%" style="stop-color:#d97706;stop-opacity:1" />
    </linearGradient>
    <radialGradient id="gemGrad" cx="50%" cy="30%" r="70%">
      <stop offset="0%" style="stop-color:#fca5a5;stop-opacity:1" />
      <stop offset="70%" style="stop-color:#ef4444;stop-opacity:1" />
      <stop offset="100%" style="stop-color:#dc2626;stop-opacity:1" />
    </radialGradient>
  </defs>
  
  <!-- 방패 내부 -->
  <path d="M90 25 L50 37.5 L50 87.5 C50 118 70 138 90 158 C110 138 130 118 130 87.5 L130 37.5 Z" 
        fill="url(#shieldGradApple)"/>
  
  <!-- 방패 장식 라인들 -->
  <path d="M90 30 L55 40 L55 85 C55 112 72 130 90 145" 
        fill="none" stroke="#64748b" stroke-width="1" opacity="0.5"/>
  <path d="M90 30 L125 40 L125 85 C125 112 108 130 90 145" 
        fill="none" stroke="#64748b" stroke-width="1" opacity="0.5"/>
  
  <!-- 검 -->
  <g transform="translate(90,90) rotate(45) translate(-90,-90)">
    <!-- 검날 -->
    <rect x="85" y="45" width="10" height="70" fill="url(#swordGradApple)" rx="2"/>
    <!-- 검날 중앙선 -->
    <rect x="88" y="45" width="4" height="70" fill="#fde047" opacity="0.6" rx="1"/>
    <!-- 검 손잡이 -->
    <rect x="82" y="115" width="16" height="25" fill="#8b5cf6" rx="5"/>
    <!-- 손잡이 장식 -->
    <rect x="85" y="118" width="10" height="3" fill="#a78bfa" rx="1"/>
    <rect x="85" y="125" width="10" height="3" fill="#a78bfa" rx="1"/>
    <rect x="85" y="132" width="10" height="3" fill="#a78bfa" rx="1"/>
    <!-- 검 가드 -->
    <rect x="75" y="110" width="30" height="8" fill="#6366f1" rx="3"/>
    <!-- 가드 장식 -->
    <ellipse cx="75" cy="114" rx="4" ry="6" fill="#4f46e5"/>
    <ellipse cx="105" cy="114" rx="4" ry="6" fill="#4f46e5"/>
    <!-- 검끝 -->
    <polygon points="90,45 85,55 95,55" fill="url(#swordGradApple)"/>
  </g>
  
  <!-- 중앙 보석 -->
  <circle cx="90" cy="80" r="12" fill="url(#gemGrad)" stroke="#dc2626" stroke-width="2"/>
  <circle cx="90" cy="80" r="8" fill="#fca5a5" opacity="0.8"/>
  <circle cx="87" cy="77" r="3" fill="#fef2f2" opacity="0.9"/>
  
  <!-- 방패 테두리 강조 -->
  <path d="M90 20 L45 35 L45 90 C45 125 67.5 147.5 90 170 C112.5 147.5 135 125 135 90 L135 35 Z" 
        fill="none" stroke="#64748b" stroke-width="2"/>
</svg> 