<svg xmlns="http://www.w3.org/2000/svg" viewBox="0 0 32 32" width="32" height="32">
  <!-- 방패 배경 -->
  <path d="M16 2 L8 6 L8 16 C8 22 12 26 16 30 C20 26 24 22 24 16 L24 6 Z" 
        fill="#1e293b" stroke="#475569" stroke-width="1"/>
  
  <!-- 방패 내부 그라데이션 -->
  <defs>
    <linearGradient id="shieldGrad" x1="0%" y1="0%" x2="100%" y2="100%">
      <stop offset="0%" style="stop-color:#334155;stop-opacity:1" />
      <stop offset="100%" style="stop-color:#1e293b;stop-opacity:1" />
    </linearGradient>
    <linearGradient id="swordGrad" x1="0%" y1="0%" x2="100%" y2="100%">
      <stop offset="0%" style="stop-color:#fbbf24;stop-opacity:1" />
      <stop offset="100%" style="stop-color:#f59e0b;stop-opacity:1" />
    </linearGradient>
  </defs>
  
  <!-- 방패 내부 -->
  <path d="M16 3 L9 6.5 L9 15.5 C9 21 12.5 24.5 16 28 C19.5 24.5 23 21 23 15.5 L23 6.5 Z" 
        fill="url(#shieldGrad)"/>
  
  <!-- 검 -->
  <g transform="translate(16,16) rotate(45) translate(-16,-16)">
    <!-- 검날 -->
    <rect x="15" y="8" width="2" height="12" fill="url(#swordGrad)" rx="0.5"/>
    <!-- 검 손잡이 -->
    <rect x="14.5" y="20" width="3" height="4" fill="#8b5cf6" rx="1"/>
    <!-- 검 가드 -->
    <rect x="13" y="19" width="6" height="1.5" fill="#6366f1" rx="0.5"/>
    <!-- 검끝 -->
    <polygon points="16,8 15,10 17,10" fill="url(#swordGrad)"/>
  </g>
  
  <!-- 방패 테두리 강조 -->
  <path d="M16 2 L8 6 L8 16 C8 22 12 26 16 30 C20 26 24 22 24 16 L24 6 Z" 
        fill="none" stroke="#64748b" stroke-width="0.5"/>
  
  <!-- 중앙 보석 -->
  <circle cx="16" cy="14" r="2" fill="#ef4444" stroke="#dc2626" stroke-width="0.5"/>
  <circle cx="16" cy="14" r="1" fill="#fca5a5" opacity="0.8"/>
</svg> 