<svg xmlns="http://www.w3.org/2000/svg" viewBox="0 0 16 16" width="16" height="16">
  <!-- 방패 배경 -->
  <path d="M8 1 L4 3 L4 8 C4 11 6 13 8 15 C10 13 12 11 12 8 L12 3 Z" 
        fill="#1e293b" stroke="#475569" stroke-width="0.5"/>
  
  <!-- 방패 내부 -->
  <path d="M8 2 L5 3.5 L5 7.5 C5 10 6.5 11.5 8 13 C9.5 11.5 11 10 11 7.5 L11 3.5 Z" 
        fill="#334155"/>
  
  <!-- 검 (단순화) -->
  <g transform="translate(8,8) rotate(45) translate(-8,-8)">
    <rect x="7.5" y="4" width="1" height="6" fill="#fbbf24" rx="0.2"/>
    <rect x="7" y="10" width="2" height="1.5" fill="#8b5cf6" rx="0.3"/>
    <rect x="6.5" y="9.5" width="3" height="0.5" fill="#6366f1"/>
  </g>
  
  <!-- 중앙 보석 -->
  <circle cx="8" cy="7" r="1" fill="#ef4444"/>
</svg> 